<svg width="15" height="10" viewBox="0 0 15 10" fill="none" xmlns="http://www.w3.org/2000/svg">
<path d="M12.9515 4.31752C13.7432 4.2522 14.2802 3.89227 14.4869 3.40389C14.2013 3.57934 13.3148 3.77061 12.8251 3.58845C12.8011 3.47341 12.7743 3.36414 12.748 3.26549C12.3749 1.89556 11.0976 0.791905 9.75915 0.925233C9.86744 0.881512 9.97727 0.840805 10.0868 0.804261C10.2341 0.751494 11.0985 0.610857 10.9623 0.305756C10.8476 0.0373961 9.79156 0.508567 9.59272 0.570151C9.85521 0.471433 10.2893 0.301627 10.3358 0C9.93368 0.05516 9.5389 0.245287 9.23387 0.521742C9.34399 0.403196 9.42754 0.258724 9.44527 0.103241C8.37268 0.788464 7.74612 2.16992 7.23906 3.50999C6.84091 3.12413 6.48803 2.82027 6.17146 2.65155C5.28336 2.1753 4.22149 1.6784 2.55459 1.05961C2.50343 1.61111 2.82734 2.34441 3.7607 2.83207C3.55848 2.805 3.18869 2.8654 2.89293 2.93623C3.01337 3.56803 3.40674 4.08856 4.47166 4.34027C3.98498 4.37239 3.73347 4.48314 3.50552 4.72183C3.72718 5.16125 4.26806 5.6784 5.24104 5.57224C4.15928 6.0385 4.79996 6.90195 5.68019 6.77318C4.17858 8.32418 1.81113 8.21019 0.45166 6.91293C4.00114 11.7496 11.7169 9.77332 12.8667 5.11471C13.7282 5.12205 14.2347 4.81629 14.5487 4.4792C14.0523 4.56343 13.3329 4.47638 12.9515 4.31752Z" fill="#A07B50"/>
</svg>
