<svg width="71" height="108" viewBox="0 0 71 108" fill="none" xmlns="http://www.w3.org/2000/svg">
<mask id="path-1-inside-1" fill="white">
<path d="M70.0113 33.0674L63.4461 18.1571V1.58525C63.4461 0.428888 62.1999 -0.350525 61.1734 0.167537L55.1751 3.19491L49.1769 0.167537C48.7349 -0.0558456 48.2141 -0.0558456 47.7721 0.167537L41.7738 3.19491L35.7758 0.167537C35.3338 -0.0558456 34.813 -0.0558456 34.371 0.167537L28.3727 3.19491L22.3745 0.167537C21.9325 -0.0558456 21.4119 -0.0558456 20.9699 0.167537L14.9716 3.19491L8.97335 0.167537C7.94682 -0.350525 6.70065 0.429099 6.70065 1.58525V18.1569L0.135213 33.0672C0.0461861 33.2686 0 33.4907 0 33.711V106.415C0 107.29 0.703233 108 1.57052 108H68.5762C69.4437 108 70.1467 107.29 70.1467 106.415V33.711C70.1465 33.4893 70.1008 33.2701 70.0113 33.0674ZM9.84147 4.15003L14.2692 6.3847C14.7112 6.60808 15.2318 6.60808 15.6738 6.3847L21.6721 3.35754L27.6703 6.3847C28.1123 6.60808 28.6329 6.60808 29.0749 6.3847L35.0732 3.35754L41.0714 6.3847C41.5134 6.60808 42.0342 6.60808 42.4762 6.3847L48.4743 3.35754L54.4725 6.3847C54.9145 6.60808 55.4353 6.60808 55.8773 6.3847L60.3048 4.15003V16.9081H9.84147V4.15003ZM3.14082 80.9472H37.8727L44.2854 86.1253L37.8727 91.3033H3.14082V80.9472ZM43.449 35.2957H53.6046V104.83H3.14082V94.4737H38.4236C38.7801 94.4737 39.1262 94.3512 39.4048 94.1263L47.7804 87.363C48.5539 86.7382 48.5539 85.5123 47.7804 84.8875L39.4048 78.1242C39.1262 77.8996 38.7803 77.7768 38.4236 77.7768H3.14082V35.2957H36.1202C36.9877 35.2957 37.6907 34.5861 37.6907 33.7105C37.6907 32.8349 36.9877 32.1254 36.1202 32.1254H3.98721L9.29185 20.0783H59.4593L54.1549 32.1254H43.449C42.5815 32.1254 41.8785 32.8349 41.8785 33.7105C41.8785 34.5861 42.5815 35.2957 43.449 35.2957ZM67.0057 104.83H56.7454V34.0474L61.8756 22.3963L67.0057 34.0474V104.83Z"/>
<path d="M28.3728 50.7241C21.2721 50.7241 15.4952 56.5551 15.4952 63.7221C15.4952 70.2729 20.3093 74.1839 28.3728 74.1839C36.4364 74.1839 41.2504 70.2729 41.2504 63.7221C41.2504 56.5551 35.4734 50.7241 28.3728 50.7241ZM28.3728 71.0138C24.7364 71.0138 18.636 70.0664 18.636 63.7221C18.636 58.3029 23.004 53.8943 28.3728 53.8943C33.7418 53.8943 38.1095 58.3029 38.1095 63.7221C38.1095 70.0667 32.0091 71.0138 28.3728 71.0138Z"/>
<path d="M22.0909 38.0432C18.8809 38.0432 16.7513 42.0504 16.7513 44.7008C16.7513 47.6727 19.1467 50.0902 22.0909 50.0902C25.0352 50.0902 27.4304 47.6727 27.4304 44.7008C27.4304 42.0504 25.3009 38.0432 22.0909 38.0432ZM22.0909 46.9198C20.8785 46.9198 19.8921 45.9244 19.8921 44.7006C19.8921 43.2015 21.1456 41.2134 22.0909 41.2134C23.0361 41.2134 24.2896 43.2012 24.2896 44.7006C24.2896 45.9244 23.3032 46.9198 22.0909 46.9198Z"/>
<path d="M34.6543 38.0432C31.4445 38.0432 29.3148 42.0504 29.3148 44.7008C29.3148 47.6727 31.7102 50.0902 34.6543 50.0902C37.5987 50.0902 39.9939 47.6727 39.9939 44.7008C39.9939 42.0504 37.8641 38.0432 34.6543 38.0432ZM34.6543 46.9198C33.442 46.9198 32.4556 45.9244 32.4556 44.7006C32.4556 43.2015 33.7093 41.2134 34.6543 41.2134C35.5996 41.2134 36.8531 43.2012 36.8531 44.7006C36.8531 45.9244 35.8669 46.9198 34.6543 46.9198Z"/>
<path d="M44.7052 45.6516C41.4954 45.6516 39.3657 49.6588 39.3657 52.3092C39.3657 55.2811 41.7608 57.6987 44.7052 57.6987C47.6496 57.6987 50.0448 55.2811 50.0448 52.3092C50.0448 49.659 47.915 45.6516 44.7052 45.6516ZM44.7052 54.5285C43.4929 54.5285 42.5065 53.5331 42.5065 52.3092C42.5065 50.8099 43.76 48.822 44.7052 48.822C45.6504 48.822 46.9039 50.8099 46.9039 52.3092C46.9039 53.5331 45.9177 54.5285 44.7052 54.5285Z"/>
<path d="M12.04 45.6516C8.83001 45.6516 6.70046 49.6588 6.70046 52.3092C6.70046 55.2811 9.09563 57.6987 12.04 57.6987C14.9844 57.6987 17.3795 55.2811 17.3795 52.3092C17.3795 49.659 15.25 45.6516 12.04 45.6516ZM12.04 54.5285C10.8277 54.5285 9.84128 53.5331 9.84128 52.3092C9.84128 50.8099 11.0948 48.822 12.04 48.822C12.9852 48.822 14.2387 50.8099 14.2387 52.3092C14.2387 53.5331 13.2523 54.5285 12.04 54.5285Z"/>
<path d="M14.9716 98.0667H8.27098C7.40369 98.0667 6.70046 98.7763 6.70046 99.6519C6.70046 100.527 7.40369 101.237 8.27098 101.237H14.9716C15.8389 101.237 16.5421 100.527 16.5421 99.6519C16.5419 98.776 15.8389 98.0667 14.9716 98.0667Z"/>
<path d="M36.7484 98.0667H21.6721C20.8048 98.0667 20.1016 98.7763 20.1016 99.6519C20.1016 100.527 20.8048 101.237 21.6721 101.237H36.7484C37.6159 101.237 38.3189 100.527 38.3189 99.6519C38.3189 98.776 37.6159 98.0667 36.7484 98.0667Z"/>
<path d="M19.997 84.5403H8.27087C7.40358 84.5403 6.70035 85.2499 6.70035 86.1255C6.70035 87.0011 7.40358 87.7107 8.27087 87.7107H19.997C20.8642 87.7107 21.5675 87.0011 21.5675 86.1255C21.5675 85.2497 20.8644 84.5403 19.997 84.5403Z"/>
<path d="M35.0733 84.5403H26.6976C25.8303 84.5403 25.1271 85.2499 25.1271 86.1255C25.1271 87.0011 25.8303 87.7107 26.6976 87.7107H35.0733C35.9407 87.7107 36.6438 87.0011 36.6438 86.1255C36.6438 85.2497 35.941 84.5403 35.0733 84.5403Z"/>
</mask>
<path d="M70.0113 33.0674L63.4461 18.1571V1.58525C63.4461 0.428888 62.1999 -0.350525 61.1734 0.167537L55.1751 3.19491L49.1769 0.167537C48.7349 -0.0558456 48.2141 -0.0558456 47.7721 0.167537L41.7738 3.19491L35.7758 0.167537C35.3338 -0.0558456 34.813 -0.0558456 34.371 0.167537L28.3727 3.19491L22.3745 0.167537C21.9325 -0.0558456 21.4119 -0.0558456 20.9699 0.167537L14.9716 3.19491L8.97335 0.167537C7.94682 -0.350525 6.70065 0.429099 6.70065 1.58525V18.1569L0.135213 33.0672C0.0461861 33.2686 0 33.4907 0 33.711V106.415C0 107.29 0.703233 108 1.57052 108H68.5762C69.4437 108 70.1467 107.29 70.1467 106.415V33.711C70.1465 33.4893 70.1008 33.2701 70.0113 33.0674ZM9.84147 4.15003L14.2692 6.3847C14.7112 6.60808 15.2318 6.60808 15.6738 6.3847L21.6721 3.35754L27.6703 6.3847C28.1123 6.60808 28.6329 6.60808 29.0749 6.3847L35.0732 3.35754L41.0714 6.3847C41.5134 6.60808 42.0342 6.60808 42.4762 6.3847L48.4743 3.35754L54.4725 6.3847C54.9145 6.60808 55.4353 6.60808 55.8773 6.3847L60.3048 4.15003V16.9081H9.84147V4.15003ZM3.14082 80.9472H37.8727L44.2854 86.1253L37.8727 91.3033H3.14082V80.9472ZM43.449 35.2957H53.6046V104.83H3.14082V94.4737H38.4236C38.7801 94.4737 39.1262 94.3512 39.4048 94.1263L47.7804 87.363C48.5539 86.7382 48.5539 85.5123 47.7804 84.8875L39.4048 78.1242C39.1262 77.8996 38.7803 77.7768 38.4236 77.7768H3.14082V35.2957H36.1202C36.9877 35.2957 37.6907 34.5861 37.6907 33.7105C37.6907 32.8349 36.9877 32.1254 36.1202 32.1254H3.98721L9.29185 20.0783H59.4593L54.1549 32.1254H43.449C42.5815 32.1254 41.8785 32.8349 41.8785 33.7105C41.8785 34.5861 42.5815 35.2957 43.449 35.2957ZM67.0057 104.83H56.7454V34.0474L61.8756 22.3963L67.0057 34.0474V104.83Z" fill="#A07B50"/>
<path d="M28.3728 50.7241C21.2721 50.7241 15.4952 56.5551 15.4952 63.7221C15.4952 70.2729 20.3093 74.1839 28.3728 74.1839C36.4364 74.1839 41.2504 70.2729 41.2504 63.7221C41.2504 56.5551 35.4734 50.7241 28.3728 50.7241ZM28.3728 71.0138C24.7364 71.0138 18.636 70.0664 18.636 63.7221C18.636 58.3029 23.004 53.8943 28.3728 53.8943C33.7418 53.8943 38.1095 58.3029 38.1095 63.7221C38.1095 70.0667 32.0091 71.0138 28.3728 71.0138Z" fill="#A07B50"/>
<path d="M22.0909 38.0432C18.8809 38.0432 16.7513 42.0504 16.7513 44.7008C16.7513 47.6727 19.1467 50.0902 22.0909 50.0902C25.0352 50.0902 27.4304 47.6727 27.4304 44.7008C27.4304 42.0504 25.3009 38.0432 22.0909 38.0432ZM22.0909 46.9198C20.8785 46.9198 19.8921 45.9244 19.8921 44.7006C19.8921 43.2015 21.1456 41.2134 22.0909 41.2134C23.0361 41.2134 24.2896 43.2012 24.2896 44.7006C24.2896 45.9244 23.3032 46.9198 22.0909 46.9198Z" fill="#A07B50"/>
<path d="M34.6543 38.0432C31.4445 38.0432 29.3148 42.0504 29.3148 44.7008C29.3148 47.6727 31.7102 50.0902 34.6543 50.0902C37.5987 50.0902 39.9939 47.6727 39.9939 44.7008C39.9939 42.0504 37.8641 38.0432 34.6543 38.0432ZM34.6543 46.9198C33.442 46.9198 32.4556 45.9244 32.4556 44.7006C32.4556 43.2015 33.7093 41.2134 34.6543 41.2134C35.5996 41.2134 36.8531 43.2012 36.8531 44.7006C36.8531 45.9244 35.8669 46.9198 34.6543 46.9198Z" fill="#A07B50"/>
<path d="M44.7052 45.6516C41.4954 45.6516 39.3657 49.6588 39.3657 52.3092C39.3657 55.2811 41.7608 57.6987 44.7052 57.6987C47.6496 57.6987 50.0448 55.2811 50.0448 52.3092C50.0448 49.659 47.915 45.6516 44.7052 45.6516ZM44.7052 54.5285C43.4929 54.5285 42.5065 53.5331 42.5065 52.3092C42.5065 50.8099 43.76 48.822 44.7052 48.822C45.6504 48.822 46.9039 50.8099 46.9039 52.3092C46.9039 53.5331 45.9177 54.5285 44.7052 54.5285Z" fill="#A07B50"/>
<path d="M12.04 45.6516C8.83001 45.6516 6.70046 49.6588 6.70046 52.3092C6.70046 55.2811 9.09563 57.6987 12.04 57.6987C14.9844 57.6987 17.3795 55.2811 17.3795 52.3092C17.3795 49.659 15.25 45.6516 12.04 45.6516ZM12.04 54.5285C10.8277 54.5285 9.84128 53.5331 9.84128 52.3092C9.84128 50.8099 11.0948 48.822 12.04 48.822C12.9852 48.822 14.2387 50.8099 14.2387 52.3092C14.2387 53.5331 13.2523 54.5285 12.04 54.5285Z" fill="#A07B50"/>
<path d="M14.9716 98.0667H8.27098C7.40369 98.0667 6.70046 98.7763 6.70046 99.6519C6.70046 100.527 7.40369 101.237 8.27098 101.237H14.9716C15.8389 101.237 16.5421 100.527 16.5421 99.6519C16.5419 98.776 15.8389 98.0667 14.9716 98.0667Z" fill="#A07B50"/>
<path d="M36.7484 98.0667H21.6721C20.8048 98.0667 20.1016 98.7763 20.1016 99.6519C20.1016 100.527 20.8048 101.237 21.6721 101.237H36.7484C37.6159 101.237 38.3189 100.527 38.3189 99.6519C38.3189 98.776 37.6159 98.0667 36.7484 98.0667Z" fill="#A07B50"/>
<path d="M19.997 84.5403H8.27087C7.40358 84.5403 6.70035 85.2499 6.70035 86.1255C6.70035 87.0011 7.40358 87.7107 8.27087 87.7107H19.997C20.8642 87.7107 21.5675 87.0011 21.5675 86.1255C21.5675 85.2497 20.8644 84.5403 19.997 84.5403Z" fill="#A07B50"/>
<path d="M35.0733 84.5403H26.6976C25.8303 84.5403 25.1271 85.2499 25.1271 86.1255C25.1271 87.0011 25.8303 87.7107 26.6976 87.7107H35.0733C35.9407 87.7107 36.6438 87.0011 36.6438 86.1255C36.6438 85.2497 35.941 84.5403 35.0733 84.5403Z" fill="#A07B50"/>
<path d="M70.0113 33.0674L63.4461 18.1571V1.58525C63.4461 0.428888 62.1999 -0.350525 61.1734 0.167537L55.1751 3.19491L49.1769 0.167537C48.7349 -0.0558456 48.2141 -0.0558456 47.7721 0.167537L41.7738 3.19491L35.7758 0.167537C35.3338 -0.0558456 34.813 -0.0558456 34.371 0.167537L28.3727 3.19491L22.3745 0.167537C21.9325 -0.0558456 21.4119 -0.0558456 20.9699 0.167537L14.9716 3.19491L8.97335 0.167537C7.94682 -0.350525 6.70065 0.429099 6.70065 1.58525V18.1569L0.135213 33.0672C0.0461861 33.2686 0 33.4907 0 33.711V106.415C0 107.29 0.703233 108 1.57052 108H68.5762C69.4437 108 70.1467 107.29 70.1467 106.415V33.711C70.1465 33.4893 70.1008 33.2701 70.0113 33.0674ZM9.84147 4.15003L14.2692 6.3847C14.7112 6.60808 15.2318 6.60808 15.6738 6.3847L21.6721 3.35754L27.6703 6.3847C28.1123 6.60808 28.6329 6.60808 29.0749 6.3847L35.0732 3.35754L41.0714 6.3847C41.5134 6.60808 42.0342 6.60808 42.4762 6.3847L48.4743 3.35754L54.4725 6.3847C54.9145 6.60808 55.4353 6.60808 55.8773 6.3847L60.3048 4.15003V16.9081H9.84147V4.15003ZM3.14082 80.9472H37.8727L44.2854 86.1253L37.8727 91.3033H3.14082V80.9472ZM43.449 35.2957H53.6046V104.83H3.14082V94.4737H38.4236C38.7801 94.4737 39.1262 94.3512 39.4048 94.1263L47.7804 87.363C48.5539 86.7382 48.5539 85.5123 47.7804 84.8875L39.4048 78.1242C39.1262 77.8996 38.7803 77.7768 38.4236 77.7768H3.14082V35.2957H36.1202C36.9877 35.2957 37.6907 34.5861 37.6907 33.7105C37.6907 32.8349 36.9877 32.1254 36.1202 32.1254H3.98721L9.29185 20.0783H59.4593L54.1549 32.1254H43.449C42.5815 32.1254 41.8785 32.8349 41.8785 33.7105C41.8785 34.5861 42.5815 35.2957 43.449 35.2957ZM67.0057 104.83H56.7454V34.0474L61.8756 22.3963L67.0057 34.0474V104.83Z" stroke="#1F1C1D" stroke-width="2" mask="url(#path-1-inside-1)"/>
<path d="M28.3728 50.7241C21.2721 50.7241 15.4952 56.5551 15.4952 63.7221C15.4952 70.2729 20.3093 74.1839 28.3728 74.1839C36.4364 74.1839 41.2504 70.2729 41.2504 63.7221C41.2504 56.5551 35.4734 50.7241 28.3728 50.7241ZM28.3728 71.0138C24.7364 71.0138 18.636 70.0664 18.636 63.7221C18.636 58.3029 23.004 53.8943 28.3728 53.8943C33.7418 53.8943 38.1095 58.3029 38.1095 63.7221C38.1095 70.0667 32.0091 71.0138 28.3728 71.0138Z" stroke="#1F1C1D" stroke-width="2" mask="url(#path-1-inside-1)"/>
<path d="M22.0909 38.0432C18.8809 38.0432 16.7513 42.0504 16.7513 44.7008C16.7513 47.6727 19.1467 50.0902 22.0909 50.0902C25.0352 50.0902 27.4304 47.6727 27.4304 44.7008C27.4304 42.0504 25.3009 38.0432 22.0909 38.0432ZM22.0909 46.9198C20.8785 46.9198 19.8921 45.9244 19.8921 44.7006C19.8921 43.2015 21.1456 41.2134 22.0909 41.2134C23.0361 41.2134 24.2896 43.2012 24.2896 44.7006C24.2896 45.9244 23.3032 46.9198 22.0909 46.9198Z" stroke="#1F1C1D" stroke-width="2" mask="url(#path-1-inside-1)"/>
<path d="M34.6543 38.0432C31.4445 38.0432 29.3148 42.0504 29.3148 44.7008C29.3148 47.6727 31.7102 50.0902 34.6543 50.0902C37.5987 50.0902 39.9939 47.6727 39.9939 44.7008C39.9939 42.0504 37.8641 38.0432 34.6543 38.0432ZM34.6543 46.9198C33.442 46.9198 32.4556 45.9244 32.4556 44.7006C32.4556 43.2015 33.7093 41.2134 34.6543 41.2134C35.5996 41.2134 36.8531 43.2012 36.8531 44.7006C36.8531 45.9244 35.8669 46.9198 34.6543 46.9198Z" stroke="#1F1C1D" stroke-width="2" mask="url(#path-1-inside-1)"/>
<path d="M44.7052 45.6516C41.4954 45.6516 39.3657 49.6588 39.3657 52.3092C39.3657 55.2811 41.7608 57.6987 44.7052 57.6987C47.6496 57.6987 50.0448 55.2811 50.0448 52.3092C50.0448 49.659 47.915 45.6516 44.7052 45.6516ZM44.7052 54.5285C43.4929 54.5285 42.5065 53.5331 42.5065 52.3092C42.5065 50.8099 43.76 48.822 44.7052 48.822C45.6504 48.822 46.9039 50.8099 46.9039 52.3092C46.9039 53.5331 45.9177 54.5285 44.7052 54.5285Z" stroke="#1F1C1D" stroke-width="2" mask="url(#path-1-inside-1)"/>
<path d="M12.04 45.6516C8.83001 45.6516 6.70046 49.6588 6.70046 52.3092C6.70046 55.2811 9.09563 57.6987 12.04 57.6987C14.9844 57.6987 17.3795 55.2811 17.3795 52.3092C17.3795 49.659 15.25 45.6516 12.04 45.6516ZM12.04 54.5285C10.8277 54.5285 9.84128 53.5331 9.84128 52.3092C9.84128 50.8099 11.0948 48.822 12.04 48.822C12.9852 48.822 14.2387 50.8099 14.2387 52.3092C14.2387 53.5331 13.2523 54.5285 12.04 54.5285Z" stroke="#1F1C1D" stroke-width="2" mask="url(#path-1-inside-1)"/>
<path d="M14.9716 98.0667H8.27098C7.40369 98.0667 6.70046 98.7763 6.70046 99.6519C6.70046 100.527 7.40369 101.237 8.27098 101.237H14.9716C15.8389 101.237 16.5421 100.527 16.5421 99.6519C16.5419 98.776 15.8389 98.0667 14.9716 98.0667Z" stroke="#1F1C1D" stroke-width="2" mask="url(#path-1-inside-1)"/>
<path d="M36.7484 98.0667H21.6721C20.8048 98.0667 20.1016 98.7763 20.1016 99.6519C20.1016 100.527 20.8048 101.237 21.6721 101.237H36.7484C37.6159 101.237 38.3189 100.527 38.3189 99.6519C38.3189 98.776 37.6159 98.0667 36.7484 98.0667Z" stroke="#1F1C1D" stroke-width="2" mask="url(#path-1-inside-1)"/>
<path d="M19.997 84.5403H8.27087C7.40358 84.5403 6.70035 85.2499 6.70035 86.1255C6.70035 87.0011 7.40358 87.7107 8.27087 87.7107H19.997C20.8642 87.7107 21.5675 87.0011 21.5675 86.1255C21.5675 85.2497 20.8644 84.5403 19.997 84.5403Z" stroke="#1F1C1D" stroke-width="2" mask="url(#path-1-inside-1)"/>
<path d="M35.0733 84.5403H26.6976C25.8303 84.5403 25.1271 85.2499 25.1271 86.1255C25.1271 87.0011 25.8303 87.7107 26.6976 87.7107H35.0733C35.9407 87.7107 36.6438 87.0011 36.6438 86.1255C36.6438 85.2497 35.941 84.5403 35.0733 84.5403Z" stroke="#1F1C1D" stroke-width="2" mask="url(#path-1-inside-1)"/>
</svg>
